<?xml version="1.0" encoding="utf-8"?>
<!-- Generator: Adobe Illustrator 25.0.0, SVG Export Plug-In . SVG Version: 6.00 Build 0)  -->
<svg version="1.1" id="Layer_1" xmlns="http://www.w3.org/2000/svg" xmlns:xlink="http://www.w3.org/1999/xlink" x="0px" y="0px"
	 viewBox="0 0 329.6 305" style="enable-background:new 0 0 329.6 305;" xml:space="preserve">
<style type="text/css">
	.st0{fill:#007348;}
	.st1{fill:#05CE7C;}
	.st2{fill:#00945E;}
	.st3{fill:#333E48;}
	.st4{fill:#28B07F;}
</style>
<path class="st0" d="M203.2,139.3l21-8.4c7.8-3.1,11.6-11.9,8.5-19.7s-11.9-11.6-19.7-8.5h-0.1l-33.7,13.5
	c-7.2,2.9-11.1,10.7-9,18.2l6.6,23.3h31.6L203.2,139.3z"/>
<path class="st0" d="M105.1,139.3l21-8.4c7.8-3.1,11.6-12,8.4-19.8s-12-11.6-19.8-8.4l0,0L81,116.2c-7.2,2.9-11.1,10.7-9,18.2
	l6.7,23.3h31.6L105.1,139.3z"/>
<path class="st1" d="M277.4,34.5C261.6,15.3,239,2.9,214.3,0.1l0,0C213.8,0,213.4,0,212.9,0c-5.3,0-9.6,4.3-9.6,9.6l0,0V39
	c-16.1-7.8-33.8-11.8-51.6-11.7h-32.5C53.4,27.3,0,80.7,0,146.5l0,0v80.7c0,43,34.9,77.8,77.8,77.9c36,0,65.2-29.2,65.2-65.2
	c0-30.4-24.7-55-55.1-55.1c-26,0-47,21-47,47c0,22.3,18.1,40.5,40.5,40.5c8,0,14.6-6.5,14.6-14.6c0-8-6.5-14.5-14.6-14.6
	c-6.3,0-11.4-5.1-11.4-11.4c0-9.9,8-17.8,17.8-17.9c14.3,0,25.9,11.7,25.9,26c0,19.9-16.2,36-36.1,36.1c-26.9,0-48.7-21.8-48.7-48.7
	v-80.8h244.4c31-0.1,56-25.2,56-56.2C329.4,60.9,306.6,36.6,277.4,34.5L277.4,34.5z"/>
<path class="st2" d="M173.6,183.1c-6.8,0-12.8-4.5-14.6-11.1l-10.6-37.6c-2.1-7.5,1.8-15.3,9-18.2l33.7-13.5
	c7.8-3.2,16.6,0.6,19.8,8.4s-0.6,16.6-8.4,19.8h-0.1l-21,8.4l6.9,24.4c2.3,8.1-2.4,16.5-10.5,18.7
	C176.4,182.9,175.1,183.1,173.6,183.1L173.6,183.1z"/>
<path class="st2" d="M75.5,183.1c-6.8,0-12.8-4.5-14.6-11.1l-10.6-37.6c-2.1-7.5,1.8-15.3,9-18.2L93,102.7
	c7.8-3.1,16.6,0.7,19.7,8.5s-0.7,16.5-8.4,19.7l-21,8.4l6.9,24.4c2.3,8.1-2.4,16.5-10.5,18.7C78.4,182.9,77,183.1,75.5,183.1
	L75.5,183.1z"/>
<ellipse transform="matrix(0.3417 -0.9398 0.9398 0.3417 103.6121 295.3739)" class="st2" cx="262.7" cy="73.7" rx="17.3" ry="17.3"/>
<circle class="st3" cx="257.2" cy="69" r="5"/>
<circle class="st4" cx="88" cy="59.2" r="2.8"/>
<circle class="st4" cx="95.3" cy="39.2" r="2.8"/>
<circle class="st4" cx="57.2" cy="62" r="2.8"/>
<path class="st4" d="M72.4,50.3c0-1.5-1.2-2.8-2.8-2.8c-1.5,0-2.8,1.2-2.8,2.8c0,1.5,1.2,2.8,2.8,2.8l0,0
	C71.1,53.1,72.4,51.9,72.4,50.3C72.4,50.4,72.4,50.4,72.4,50.3z"/>
<circle class="st4" cx="111" cy="44.8" r="2.8"/>
<circle class="st4" cx="178.7" cy="39.2" r="2.8"/>
<circle class="st4" cx="172.4" cy="59.2" r="2.8"/>
<circle class="st4" cx="119.4" cy="56.4" r="2.8"/>
<circle class="st4" cx="135.4" cy="37.9" r="2.8"/>
<path class="st4" d="M160.3,42c0-1.5-1.2-2.8-2.8-2.8c-1.5,0-2.8,1.2-2.8,2.8c0,1.5,1.2,2.8,2.8,2.8l0,0
	C159.1,44.8,160.3,43.5,160.3,42L160.3,42z"/>
<circle cx="147.9" cy="56.4" r="2.8"/>
</svg>
